<svg xmlns="http://www.w3.org/2000/svg" viewBox="0 0 38.38 46.01">
   <defs><style>.cls-1,.cls-3{fill:none;stroke-linecap:round;stroke-linejoin:round;stroke-width:2px;}.cls-1{stroke:#120078;}.cls-2{fill:#f0f2fa;}.cls-3{stroke:#4230c2;}.cls-4{fill:#fff;}</style></defs>
   <path id="Stroke-3" class="cls-1" d="M24,2,5.83,12.35V23.43a19.13,19.13,0,0,0,7.19,15L24,46l11-7.62a19.13,19.13,0,0,0,7.19-15V12.35Z" transform="translate(-4.83 -1)"/>
   <path id="Fill-5" class="cls-2" d="M16.12,34.23A13.93,13.93,0,0,1,11,23.4V15.31L24,7.9l13,7.41V23.4a13.93,13.93,0,0,1-5.12,10.82L24,39.7Z" transform="translate(-4.83 -1)"/>
   <path id="Stroke-7" class="cls-3" d="M37,15.31,24,7.9,11,15.31V23.4a13.93,13.93,0,0,0,5.12,10.82L24,39.69" transform="translate(-4.83 -1)"/>
   <path id="Fill-9" class="cls-4" d="M28,19.61a4,4,0,1,0-6.32,3.25l-1,7.08h6.67l-1-7.08A4,4,0,0,0,28,19.61" transform="translate(-4.83 -1)"/>
   <path id="Stroke-11" class="cls-1" d="M28,19.61a4,4,0,1,0-6.32,3.25l-1,7.08h6.67l-1-7.08A4,4,0,0,0,28,19.61Z" transform="translate(-4.83 -1)"/>
</svg>